<svg width="152" height="40" fill="none" xmlns="http://www.w3.org/2000/svg"><path d="M44.41 25.145c.8.38 1.416.91 1.652 1.752.484 1.723 0 3.467-2.34 4.077a11.1 11.1 0 01-2.434.322c-2.398.08-4.796.105-7.195.055-.2 0-.398-.025-.595-.047-.943-.108-1.352-.524-1.391-1.473-.05-1.558-.122-3.117-.234-4.673-.15-2.063-.325-4.123-.487-6.184-.11-1.445-.22-2.89-.311-4.335-.002-.31.025-.618.08-.923a1.327 1.327 0 01.932-1.11 7.812 7.812 0 012.326-.485c1.8-.139 3.6-.208 5.38.189 2.446.54 4.522 1.664 5.712 3.957a8.244 8.244 0 01.44 6.903 4.78 4.78 0 01-1.536 1.974zm-5.517-1.664v.776c0 .699 0 .699.695.555.428-.068.81-.303 1.065-.652.255-.35.36-.785.293-1.212-.142-1.043-.699-1.53-1.67-1.49-.214 0-.303.07-.308.298-.009.565-.045 1.145-.076 1.725zm-.034 4.032h-.03v.854c0 .166.041.247.225.25.413.023.822-.097 1.157-.339a.907.907 0 00-.142-1.58 3.26 3.26 0 00-1.01-.23c-.158-.026-.197.063-.197.194l-.003.85zm67.736-2.393a51.383 51.383 0 00-3.475 4.736c-.05.072-.095.146-.136.222a2.015 2.015 0 01-1.914 1.184 34.087 34.087 0 01-3.765-.05c-.459-.044-.556-.163-.634-.618a21.062 21.062 0 01-.156-3.076c0-2.958.008-5.908.023-8.85 0-1.663.033-3.327.05-4.977v-.225c.025-.651.11-.76.765-.773a82 82 0 013.093 0c.532 0 .626.102.624.646 0 1.164-.034 2.326-.048 3.491v2.07c.496-.77.966-1.518 1.458-2.25a24.804 24.804 0 012.832-3.494 1.704 1.704 0 011.263-.525 33.595 33.595 0 013.464.114c.618.053.768.205.768.81 0 2.814-.01 5.627-.031 8.44-.016 2.65-.05 5.302-.072 7.953 0 1.076-.139 1.24-1.196 1.284-.771.04-1.543.033-2.312-.02-.623-.047-.835-.244-.807-.868.056-1.644.134-3.289.203-4.933.003-.067.003-.125.003-.292zM57.124 12.745h4.173c.325 0 .528.1.531.46a30.893 30.893 0 01-.673 6.934c0 .05-.017.1-.03.147-.22.832-.229.807-1.091.754-1.005-.06-2.012-.066-3.019-.102-.192 0-.278.027-.292.255-.075 1.109-.08 1.109 1.024 1.084.893-.033 1.783-.111 2.679-.142.654-.022.904.294.773.935-.105.496-.24.986-.4 1.467a.998.998 0 01-.852.724c-.96.138-1.93.178-2.899.12-.375 0-.47.094-.48.462-.029 1.046-.048 1.032 1.023 1.063.946.027 1.886-.098 2.832-.09.395 0 .557.142.557.522a22.16 22.16 0 01-.112 2.857.658.658 0 01-.556.632 12.09 12.09 0 01-2.585.302c-1.627.075-3.258.058-4.885.04a9.336 9.336 0 01-2.15-.173c-.58-.141-.752-.319-.835-.89-.242-1.617-.36-3.248-.481-4.878a319.72 319.72 0 01-.621-10.977c-.02-.535.08-.699.59-.899a8.327 8.327 0 012.37-.44c1.925-.172 3.853-.178 5.409-.167zm6.412 8.93c0-4.534 2.796-8.203 7.1-9.24 1.898-.46 3.82-.375 5.737-.053.718.12 1.085.507 1.221 1.226.26 1.465.405 2.949.431 4.437.02.593.045 1.187.05 1.78.006.594-.208.777-.812.652a7.76 7.76 0 00-2.629-.136c-1.817.244-2.996 1.725-2.88 3.63.115 1.858 1.495 3.209 3.292 3.237a4.561 4.561 0 001.613-.228.638.638 0 01.896.585c.03.755-.002 1.511-.097 2.26-.039.34-.312.494-.576.636a6.133 6.133 0 01-2.32.643c-2.393.239-4.69-.083-6.802-1.292-2.393-1.37-3.637-3.511-4.07-6.17-.11-.65-.162-1.308-.154-1.967zm81.129-2.762v.929c0 .582-.214.763-.79.632a8.113 8.113 0 00-1.772-.2c-1.233 0-2.368.278-3.105 1.362a3.554 3.554 0 00-.223 3.808c.618 1.226 1.689 1.758 3.061 1.758.485.006.967-.07 1.427-.224a.639.639 0 01.89.646c.017.718-.011 1.437-.083 2.152a.836.836 0 01-.512.638 5.955 5.955 0 01-2.421.688c-2.367.235-4.643-.09-6.735-1.27-2.304-1.304-3.583-3.329-4.056-5.894-.382-2.008-.329-4.013.453-5.915 1.391-3.328 3.895-5.27 7.481-5.777a14.658 14.658 0 014.641.122c.787.141 1.165.555 1.296 1.334.182 1.036.3 2.083.353 3.134.034.69 0 1.386 0 2.077h.095zM17.976 24.626a57.8 57.8 0 000 6.066c.037.696 0 .786-.706.889a7.912 7.912 0 01-1.164.086h-5.1c-.29 0-.58 0-.87-.025-.547 0-.699-.13-.846-.671a10.414 10.414 0 01-.27-2.1c-.217-3.439-.421-6.876-.612-10.312C8.225 15.345 8 12.136 8 8.914c0-.515.057-.597.584-.687a24.626 24.626 0 013.765-.213c1.552-.025 3.104 0 4.651 0 .515 0 .556.033.54.565-.07 2.046 0 4.093.093 6.14.045 1.101.127 2.203.278 3.32.408-1.015.866-2.047 1.282-3.05.878-2.161 1.699-4.343 2.38-6.574a.46.46 0 01.528-.41 47.87 47.87 0 016.84.602c.857.156.89.242.62 1.065-1.119 3.426-2.605 6.672-4.83 9.53a1.054 1.054 0 00-.123 1.367c2.507 3.275 4.492 5.661 5.59 9.235.156.508.082.667-.408.86a9.959 9.959 0 01-2.707.52c-1.479.151-2.961.204-4.447.22a.49.49 0 01-.56-.409c-.678-1.92-1.719-3.745-3.798-6.087-.049-.127-.245-.176-.302-.282z" fill="#F77833"/><path d="M120.638 25.447a45.46 45.46 0 000 4.785c.029.548 0 .62-.559.7a6.284 6.284 0 01-.921.068h-4.036c-.23 0-.459 0-.689-.02-.433 0-.552-.103-.669-.529a8.252 8.252 0 01-.213-1.656 1064.87 1064.87 0 01-.485-8.134c-.145-2.534-.323-5.066-.323-7.607 0-.406.046-.47.462-.542a19.564 19.564 0 012.98-.168c1.228-.02 2.456 0 3.68 0 .407 0 .44.026.427.446-.055 1.614 0 3.229.074 4.843.036.868.1 1.737.22 2.618.323-.8.685-1.614 1.015-2.405.694-1.705 1.344-3.426 1.883-5.185a.364.364 0 01.417-.323c1.813.029 3.622.187 5.413.474.678.123.704.19.491.84-.885 2.702-2.062 5.263-3.823 7.516a.828.828 0 00-.097 1.079c1.984 2.583 3.555 4.465 4.424 7.284.123.4.065.526-.323.678a7.909 7.909 0 01-2.142.41c-1.17.12-2.343.161-3.519.174a.39.39 0 01-.443-.323c-.537-1.514-1.361-2.954-3.005-4.8-.039-.1-.194-.14-.239-.224zM85.546 12.373c2.587-.024 5.171.032 7.753.167 1.194.064 1.241.091 1.277 1.295.07 2.18.059 4.36-.055 6.54-.025.454-.165.59-.624.593h-2.573c-.259 0-.326.072-.342.33-.173 3.05-.454 6.073-.802 9.102a.715.715 0 01-.617.643c-.389.09-.787.131-1.185.122-1.113 0-2.226 0-3.339-.102-.49-.042-.64-.164-.673-.655-.1-1.52-.184-3.05-.295-4.56-.111-1.569-.253-3.136-.37-4.714-.017-.26-.178-.26-.353-.277-.807 0-1.617-.02-2.424-.025-.7 0-.779-.083-.82-.78-.117-2.04-.106-4.085-.048-6.128 0-.322.037-.644.056-.965a.523.523 0 01.556-.555c1.622-.072 3.25-.008 4.877-.03z" fill="#F77833"/></svg>