<svg width="43" height="27" fill="none" xmlns="http://www.w3.org/2000/svg"><path d="M27.172 2.823h-11.56v20.773h11.56V2.823z" fill="#FF5F00"/><path d="M16.347 13.21a13.188 13.188 0 015.045-10.386 13.211 13.211 0 100 20.773 13.188 13.188 0 01-5.045-10.386z" fill="#EB001B"/><path d="M42.766 13.21a13.21 13.21 0 01-21.374 10.387 13.212 13.212 0 000-20.773 13.21 13.21 0 0121.374 10.387zm-1.26 8.186v-.425h.172v-.087h-.437v.087h.171v.425h.094zm.848 0v-.513h-.134l-.154.353-.154-.353h-.134v.513h.095v-.387l.144.334h.098l.145-.335v.388h.094z" fill="#F79E1B"/></svg>