<svg width="50" height="15" fill="none" xmlns="http://www.w3.org/2000/svg"><path d="M44.403.165H35.04c.545 3.091 3.545 6 6.818 6h7.454c.091-.272.091-.727.091-1 0-2.727-2.272-5-5-5z" fill="url(#paint0_linear_1_1730)"/><path d="M35.857 6.71v7.545h4.545v-4h4c2.182 0 4.091-1.546 4.727-3.546H35.858zM19.856.165v14h4s1 0 1.545-1c2.728-5.363 3.546-7 3.546-7h.545v8h4.546v-14h-4s-1 .091-1.546 1c-2.272 4.637-3.545 7-3.545 7H24.4v-8h-4.545zM.766 14.256v-14H5.31s1.273 0 2 2c1.819 5.272 2 6 2 6s.364-1.273 2-6c.728-2 2-2 2-2h4.546v14h-4.545V6.71h-.546l-2.545 7.546h-2L5.675 6.71H5.13v7.546H.766z" fill="#4FAD50"/><defs><linearGradient id="paint0_linear_1_1730" x1="35.023" y1="3.208" x2="49.371" y2="3.208" gradientUnits="userSpaceOnUse"><stop stop-color="#27B1E6"/><stop offset="1" stop-color="#148ACA"/></linearGradient></defs></svg>