<svg width="27" height="27" fill="none" xmlns="http://www.w3.org/2000/svg"><path d="M13.21 23.072c5.447 0 9.862-4.415 9.862-9.861l3.128-2.42c.145.785.221 1.593.221 2.42 0 7.296-5.914 13.21-13.21 13.21C5.915 26.421 0 20.507 0 13.211 0 5.915 5.915 0 13.21 0c3.093 0 5.937 1.062 8.188 2.842l-2.552 2.275a9.816 9.816 0 00-5.635-1.768c-5.447 0-9.862 4.415-9.862 9.862 0 5.446 4.415 9.861 9.862 9.861z" fill="url(#paint0_angular_1_1721)"/><path d="M23.257 5.583l1.675 2.605-11.815 8.652-4.93-3.07v-3.722l4.93 2.977 10.14-7.442z" fill="url(#paint1_linear_1_1721)"/><defs><radialGradient id="paint0_angular_1_1721" cx="0" cy="0" r="1" gradientUnits="userSpaceOnUse" gradientTransform="rotate(90 0 13.21) scale(13.2106)"><stop offset=".203" stop-color="#DFFA16"/><stop offset=".308" stop-color="#8CFB6B"/><stop offset=".37" stop-color="#10E7EF"/><stop offset=".495" stop-color="#0DA9DA"/><stop offset=".583" stop-color="#0B86CE"/><stop offset=".729" stop-color="#219E39"/><stop offset="1" stop-color="#7EF629"/></radialGradient><linearGradient id="paint1_linear_1_1721" x1="7.814" y1="12.374" x2="24.746" y2="7.35" gradientUnits="userSpaceOnUse"><stop stop-color="#219F36"/><stop offset="1" stop-color="#24A139"/></linearGradient></defs></svg>