<svg width="120" height="12" fill="none" xmlns="http://www.w3.org/2000/svg"><path d="M6 0l1.679 3.69 4.027.456-2.99 2.737.81 3.971L6 8.856l-3.527 1.998.81-3.971-2.99-2.737 4.028-.457L6 0zm20 0l1.679 3.69 4.027.456-2.99 2.737.81 3.971L26 8.856l-3.527 1.998.81-3.971-2.99-2.737 4.028-.457L26 0zm20 0l1.679 3.69 4.027.456-2.99 2.737.81 3.971L46 8.856l-3.527 1.998.81-3.971-2.99-2.737 4.028-.457L46 0zm20 0l1.679 3.69 4.027.456-2.99 2.737.81 3.971L66 8.856l-3.527 1.998.81-3.971-2.99-2.737 4.028-.457L66 0zm20 0l1.679 3.69 4.027.456-2.99 2.737.81 3.971L86 8.856l-3.527 1.998.81-3.971-2.99-2.737 4.028-.457L86 0z" fill="#FF9D29"/></svg>