<svg width="45" height="15" fill="none" xmlns="http://www.w3.org/2000/svg"><path d="M22.552.458l-2.94 13.54h-3.555l2.94-13.54h3.555zM37.51 9.201l1.871-5.085 1.077 5.085H37.51zm3.968 4.797h3.288L41.894.458H38.86c-.683 0-1.26.39-1.514.992l-5.335 12.548h3.734l.74-2.022h4.562l.43 2.022zm-9.281-4.42c.015-3.574-5.014-3.772-4.98-5.368.01-.486.48-1.002 1.507-1.135.51-.064 1.914-.116 3.506.607l.623-2.873a9.708 9.708 0 00-3.325-.598c-3.515 0-5.988 1.84-6.007 4.475-.023 1.95 1.766 3.036 3.11 3.686 1.387.663 1.852 1.089 1.845 1.682-.01.908-1.105 1.31-2.126 1.326-1.789.027-2.825-.477-3.652-.856l-.645 2.968c.832.375 2.365.702 3.953.719 3.737 0 6.18-1.818 6.19-4.633zM17.47.458l-5.76 13.54H7.953L5.118 3.192c-.172-.664-.322-.909-.845-1.19-.855-.457-2.266-.885-3.507-1.15L.85.457H6.9c.77 0 1.464.505 1.64 1.38l1.498 7.836L13.736.458h3.735z" fill="#1434CB"/></svg>